<svg width="115" height="94" viewBox="0 0 115 94" fill="none" xmlns="http://www.w3.org/2000/svg">
<path d="M31.0356 15.7861C37.6194 13.3421 46.9775 11.75 57.5 11.75C68.0225 11.75 77.3806 13.3363 83.9644 15.7861C90.8788 18.3594 93.4375 21.3086 93.4375 23.5C93.4375 25.6973 90.8788 28.6406 83.9644 31.2139C77.3806 33.6579 68.0225 35.25 57.5 35.25C46.9775 35.25 37.6194 33.6638 31.0356 31.2139C24.1212 28.6406 21.5625 25.6914 21.5625 23.5C21.5625 21.3027 24.1212 18.3594 31.0356 15.7861ZM93.4375 33.4757V41.125C93.4375 43.3223 90.8788 46.2656 83.9644 48.8389C77.3806 51.2829 68.0225 52.875 57.5 52.875C46.9775 52.875 37.6194 51.2887 31.0356 48.8389C24.1212 46.2656 21.5625 43.3164 21.5625 41.125V33.4757C23.5103 34.6625 25.7313 35.6965 28.06 36.5601C35.7794 39.4271 46.1941 41.125 57.5 41.125C68.8059 41.125 79.2206 39.4271 86.94 36.5601C89.2337 35.7235 91.4118 34.6896 93.4375 33.4757ZM100.625 23.5C100.625 17.5839 94.3359 13.1894 86.94 10.4399C79.2206 7.57287 68.8059 5.875 57.5 5.875C46.1941 5.875 35.7794 7.57287 28.06 10.4399C20.6641 13.1894 14.375 17.5839 14.375 23.5V76.375C14.375 82.2911 20.6641 86.6856 28.06 89.4351C35.7794 92.2962 46.1941 94 57.5 94C68.8059 94 79.2206 92.3021 86.94 89.4351C94.3359 86.6856 100.625 82.2911 100.625 76.375V23.5ZM93.4375 51.1007V58.75C93.4375 60.9473 90.8788 63.8906 83.9644 66.4639C77.3806 68.9079 68.0225 70.5 57.5 70.5C46.9775 70.5 37.6194 68.9137 31.0356 66.4639C24.1212 63.8906 21.5625 60.9414 21.5625 58.75V51.1007C23.5103 52.2875 25.7313 53.3215 28.06 54.1851C35.7794 57.0462 46.1941 58.75 57.5 58.75C68.8059 58.75 79.2206 57.0521 86.94 54.1851C89.2337 53.3485 91.4118 52.3146 93.4375 51.1007ZM93.4375 68.7257V76.375C93.4375 78.5723 90.8788 81.5156 83.9644 84.0889C77.3806 86.5329 68.0225 88.125 57.5 88.125C46.9775 88.125 37.6194 86.5387 31.0356 84.0889C24.1212 81.5156 21.5625 78.5664 21.5625 76.375V68.7257C23.5103 69.9125 25.7313 70.9465 28.06 71.8101C35.7794 74.6712 46.1941 76.375 57.5 76.375C68.8059 76.375 79.2206 74.6771 86.94 71.8101C89.2687 70.9465 91.4897 69.9125 93.4375 68.7257Z" fill="black"/>
</svg>
