<svg width="520" height="306" viewBox="0 0 520 306" fill="none" xmlns="http://www.w3.org/2000/svg">
<rect x="266.542" y="234.549" width="110" height="110" rx="17" transform="rotate(-134.832 266.542 234.549)" fill="white"/>
<rect x="464.336" y="305.128" width="110" height="110" rx="17" transform="rotate(-134.832 464.336 305.128)" fill="white"/>
<rect x="83.7012" y="180.013" width="110" height="110" rx="17" transform="rotate(-134.832 83.7012 180.013)" fill="white"/>
<rect x="224.51" y="245.426" width="110" height="110" rx="17" transform="rotate(-134.832 224.51 245.426)" fill="#00FCFC"/>
<rect x="445.43" y="273.073" width="110" height="110" rx="17" transform="rotate(-134.832 445.43 273.073)" fill="#80C2F7"/>
<rect x="401.509" y="245.944" width="110" height="110" rx="17" transform="rotate(-134.832 401.509 245.944)" fill="#D027EC"/>
<rect x="207.66" y="194.376" width="110" height="110" rx="17" transform="rotate(-134.832 207.66 194.376)" fill="#80C2F7"/>
<rect x="372.7" y="180.859" width="110" height="110" rx="17" transform="rotate(-134.832 372.7 180.859)" fill="#0085FF"/>
<rect x="78.7715" y="155.998" width="110" height="110" rx="17" transform="rotate(-134.832 78.7715 155.998)" fill="#0085FF"/>
</svg>
