<svg width="304" height="542" viewBox="0 0 304 542" fill="none">
<rect x="70" y="265.782" width="110" height="110" rx="17" transform="rotate(-45 70 265.782)" fill="white"/>
<rect y="463.782" width="110" height="110" rx="17" transform="rotate(-45 0 463.782)" fill="white"/>
<rect x="124" y="82.7817" width="110" height="110" rx="17" transform="rotate(-45 124 82.7817)" fill="white"/>
<rect x="59" y="223.782" width="110" height="110" rx="17" transform="rotate(-45 59 223.782)" fill="#00FCFC"/>
<rect x="32" y="444.782" width="110" height="110" rx="17" transform="rotate(-45 32 444.782)" fill="#80C2F7"/>
<rect x="59" y="400.782" width="110" height="110" rx="17" transform="rotate(-45 59 400.782)" fill="#D027EC"/>
<rect x="110" y="206.782" width="110" height="110" rx="17" transform="rotate(-45 110 206.782)" fill="#80C2F7"/>
<rect x="124" y="371.782" width="110" height="110" rx="17" transform="rotate(-45 124 371.782)" fill="#0085FF"/>
<rect x="148" y="77.7817" width="110" height="110" rx="17" transform="rotate(-45 148 77.7817)" fill="#0085FF"/>
</svg>
