<svg width="109" height="84" viewBox="0 0 109 84" fill="none" xmlns="http://www.w3.org/2000/svg">
<path d="M72.3106 4.67618C72.4494 4.3074 72.4979 3.91989 72.4534 3.53577C72.409 3.15166 72.2724 2.77847 72.0515 2.4375C71.8305 2.09654 71.5296 1.79448 71.1659 1.54857C70.8022 1.30266 70.3827 1.11772 69.9316 1.00431C69.4804 0.890895 69.0063 0.851231 68.5364 0.887579C68.0665 0.923927 67.6099 1.03558 67.1927 1.21615C66.7756 1.39673 66.4061 1.64269 66.1052 1.94C65.8044 2.23731 65.5781 2.58015 65.4394 2.94893L36.6894 79.3239C36.4092 80.0687 36.5024 80.874 36.9485 81.5626C37.3947 82.2512 38.1573 82.7668 39.0684 82.9958C39.9796 83.2249 40.9648 83.1487 41.8072 82.784C42.6497 82.4193 43.2804 81.796 43.5606 81.0512L72.3106 4.67618ZM31.8881 19.3578C32.2228 19.6307 32.4883 19.9548 32.6695 20.3117C32.8507 20.6686 32.9439 21.0512 32.9439 21.4376C32.9439 21.8239 32.8507 22.2065 32.6695 22.5634C32.4883 22.9203 32.2228 23.2444 31.8881 23.5173L9.26906 42.0001L31.8881 60.4828C32.5629 61.0344 32.942 61.7825 32.942 62.5626C32.942 63.3426 32.5629 64.0907 31.8881 64.6423C31.2133 65.1939 30.2981 65.5038 29.3437 65.5038C28.3894 65.5038 27.4742 65.1939 26.7994 64.6423L1.64313 44.0798C1.30845 43.8069 1.04293 43.4828 0.861754 43.1259C0.680582 42.769 0.587326 42.3864 0.587326 42.0001C0.587326 41.6137 0.680582 41.2311 0.861754 40.8742C1.04293 40.5173 1.30845 40.1932 1.64313 39.9203L26.7994 19.3578C27.1332 19.0842 27.5298 18.8672 27.9664 18.7191C28.403 18.571 28.871 18.4948 29.3437 18.4948C29.8165 18.4948 30.2845 18.571 30.7211 18.7191C31.1577 18.8672 31.5543 19.0842 31.8881 19.3578ZM77.1119 19.3578C76.7772 19.6307 76.5117 19.9548 76.3305 20.3117C76.1493 20.6686 76.0561 21.0512 76.0561 21.4376C76.0561 21.8239 76.1493 22.2065 76.3305 22.5634C76.5117 22.9203 76.7772 23.2444 77.1119 23.5173L99.7309 42.0001L77.1119 60.4828C76.7777 60.7559 76.5127 61.0802 76.3319 61.437C76.151 61.7939 76.058 62.1763 76.058 62.5626C76.058 62.9488 76.151 63.3313 76.3319 63.6881C76.5127 64.045 76.7777 64.3692 77.1119 64.6423C77.446 64.9154 77.8427 65.1321 78.2792 65.2799C78.7158 65.4277 79.1837 65.5038 79.6562 65.5038C80.1288 65.5038 80.5967 65.4277 81.0333 65.2799C81.4698 65.1321 81.8665 64.9154 82.2006 64.6423L107.357 44.0798C107.692 43.8069 107.957 43.4828 108.138 43.1259C108.319 42.769 108.413 42.3864 108.413 42.0001C108.413 41.6137 108.319 41.2311 108.138 40.8742C107.957 40.5173 107.692 40.1932 107.357 39.9203L82.2006 19.3578C81.8668 19.0842 81.4702 18.8672 81.0336 18.7191C80.597 18.571 80.129 18.4948 79.6562 18.4948C79.1835 18.4948 78.7155 18.571 78.2789 18.7191C77.8423 18.8672 77.4457 19.0842 77.1119 19.3578Z" fill="black"/>
</svg>
